  0
SECTION
  2
HEADER
  9
$ACADVER
  1
AC1018
  9
$ACADMAINTVER
 70
     0
  9
$DWGCODEPAGE
  3
ANSI_1252
  9
$EXTMIN
 10
-126.409962270744
 20
0
 30
0.0
  9
$EXTMAX
 10
128.02591417807
 20
56.9409067238655
 30
0.0
  9
$LIMMIN
 10
0.0
 20
0.0
  9
$LIMMAX
 10
12.0
 20
9.0
  9
$ORTHOMODE
 70
     0
  9
$REGENMODE
 70
     1
  9
$FILLMODE
 70
     1
  9
$QTEXTMODE
 70
     0
  9
$MIRRTEXT
 70
     1
  9
$LTSCALE
 40
1.0
  9
$ATTMODE
 70
     1
  9
$TEXTSIZE
 40
0.2
  9
$TRACEWID
 40
0.05
  9
$TEXTSTYLE
  7
Standard
  9
$CLAYER
  8
0
  9
$CELTYPE
  6
ByLayer
  9
$CECOLOR
 62
   256
  9
$CELTSCALE
 40
1.0
  9
$DISPSILH
 70
     0
  9
$LUNITS
 70
     2
  9
$LUPREC
 70
     4
  9
$SKETCHINC
 40
0.1
  9
$FILLETRAD
 40
0.5
  9
$AUNITS
 70
     0
  9
$AUPREC
 70
     0
  9
$MENU
  1
.
  9
$ELEVATION
 40
0.0
  9
$PELEVATION
 40
0.0
  9
$THICKNESS
 40
0.0
  9
$LIMCHECK
 70
     0
  9
$CHAMFERA
 40
0.5
  9
$CHAMFERB
 40
0.5
  9
$CHAMFERC
 40
1.0
  9
$CHAMFERD
 40
0.0
  9
$SKPOLY
 70
     0
  9
$ANGBASE
 50
0.0
  9
$ANGDIR
 70
     0
  9
$PDMODE
 70
     0
  9
$PDSIZE
 40
0.0
  9
$PLINEWID
 40
0.0
  9
$SPLFRAME
 70
     0
  9
$SPLINETYPE
 70
     6
  9
$SPLINESEGS
 70
     8
  9
$HANDSEED
  5
00020006
  9
$SURFTAB1
 70
     6
  9
$SURFTAB2
 70
     6
  9
$SURFTYPE
 70
     6
  9
$SURFU
 70
     6
  9
$SURFV
 70
     6
  9
$UCSBASE
  2

  9
$UCSNAME
  2

  9
$UCSORG
 10
0.0
 20
0.0
 30
0.0
  9
$UCSXDIR
 10
1.0
 20
0.0
 30
0.0
  9
$UCSYDIR
 10
0.0
 20
1.0
 30
0.0
  9
$UCSORTHOREF
  2

  9
$UCSORTHOVIEW
 70
     0
  9
$UCSORGTOP
 10
0.0
 20
0.0
 30
0.0
  9
$UCSORGBOTTOM
 10
0.0
 20
0.0
 30
0.0
  9
$UCSORGLEFT
 10
0.0
 20
0.0
 30
0.0
  9
$UCSORGRIGHT
 10
0.0
 20
0.0
 30
0.0
  9
$UCSORGFRONT
 10
0.0
 20
0.0
 30
0.0
  9
$UCSORGBACK
 10
0.0
 20
0.0
 30
0.0
  9
$PUCSBASE
  2

  9
$PUCSNAME
  2

  9
$PUCSORG
 10
0.0
 20
0.0
 30
0.0
  9
$PUCSXDIR
 10
1.0
 20
0.0
 30
0.0
  9
$PUCSYDIR
 10
0.0
 20
1.0
 30
0.0
  9
$PUCSORTHOREF
  2

  9
$PUCSORTHOVIEW
 70
     0
  9
$PUCSORGTOP
 10
0.0
 20
0.0
 30
0.0
  9
$PUCSORGBOTTOM
 10
0.0
 20
0.0
 30
0.0
  9
$PUCSORGLEFT
 10
0.0
 20
0.0
 30
0.0
  9
$PUCSORGRIGHT
 10
0.0
 20
0.0
 30
0.0
  9
$PUCSORGFRONT
 10
0.0
 20
0.0
 30
0.0
  9
$PUCSORGBACK
 10
0.0
 20
0.0
 30
0.0
  9
$WORLDVIEW
 70
     1
  9
$SHADEDGE
 70
     3
  9
$SHADEDIF
 70
    70
  9
$TILEMODE
 70
     1
  9
$MAXACTVP
 70
    64
  9
$PINSBASE
 10
0.0
 20
0.0
 30
0.0
  9
$PLIMCHECK
 70
     0
  9
$PEXTMIN
 10
1.000000000000000E+20
 20
1.000000000000000E+20
 30
1.000000000000000E+20
  9
$PEXTMAX
 10
-1.000000000000000E+20
 20
-1.000000000000000E+20
 30
-1.000000000000000E+20
  9
$PLIMMIN
 10
0.0
 20
0.0
  9
$PLIMMAX
 10
12.0
 20
9.0
  9
$UNITMODE
 70
     0
  9
$VISRETAIN
 70
     1
  9
$PLINEGEN
 70
     0
  9
$PSLTSCALE
 70
     1
  9
$TREEDEPTH
 70
  3020
  9
$CMLSTYLE
  2
Standard
  9
$CMLJUST
 70
     0
  9
$CMLSCALE
 40
1.0
  9
$PROXYGRAPHICS
 70
     1
  9
$MEASUREMENT
 70
     0
  9
$CELWEIGHT
370
    -1
  9
$ENDCAPS
280
     0
  9
$JOINSTYLE
280
     0
  9
$LWDISPLAY
290
     0
  9
$INSUNITS
 70
     1
  9
$HYPERLINKBASE
  1

  9
$STYLESHEET
  1

  9
$XEDIT
290
     1
  9
$CEPSNTYPE
380
     0
  9
$PSTYLEMODE
290
     1
  9
$EXTNAMES
290
     1
  9
$PSVPSCALE
 40
0.0
  9
$OLESTARTUP
290
     0
  9
$SORTENTS
280
   127
  9
$INDEXCTL
280
     0
  9
$HIDETEXT
280
     1
  9
$XCLIPFRAME
290
     0
  9
$HALOGAP
280
     0
  9
$OBSCOLOR
 70
   257
  9
$OBSLTYPE
280
     0
  9
$INTERSECTIONDISPLAY
280
     0
  9
$INTERSECTIONCOLOR
 70
   257
  9
$DIMASSOC
280
     2
  9
$PROJECTNAME
  1

  0
ENDSEC
  0
SECTION
  2
CLASSES
  0
CLASS
  1
ACDBDICTIONARYWDFLT
  2
AcDbDictionaryWithDefault
  3
ObjectDBX Classes
 90
        0
 91
        4
280
     0
281
     0
  0
ENDSEC
  0
SECTION
  2
TABLES
  0
TABLE
  2
VPORT
  5
8
330
0
100
AcDbSymbolTable
 70
     1
  0
VPORT
  5
29
330
8
100
AcDbSymbolTableRecord
100
AcDbViewportTableRecord
  2
*Active
 70
     0
 10
0.0
 20
0.0
 11
1.0
 21
1.0
 12
80.25
 22
106.4409457059851
 13
0.0
 23
0.0
 14
0.5
 24
0.5
 15
0.5
 25
0.5
 16
0.0
 26
0.0
 36
1.0
 17
0.0
 27
0.0
 37
0.0
 40
113.3818914119703
 41
0.8863849310366128
 42
50.0
 43
0.0
 44
0.0
 50
0.0
 51
0.0
 71
     0
 72
  1000
 73
     1
 74
     3
 75
     0
 76
     0
 77
     0
 78
     0
281
     0
 65
     1
110
0.0
120
0.0
130
0.0
111
1.0
121
0.0
131
0.0
112
0.0
122
1.0
132
0.0
 79
     0
146
0.0
  0
ENDTAB
  0
TABLE
  2
LTYPE
  5
5
330
0
100
AcDbSymbolTable
 70
     1
  0
LTYPE
  5
14
330
5
100
AcDbSymbolTableRecord
100
AcDbLinetypeTableRecord
  2
ByBlock
 70
     0
  3

 72
    65
 73
     0
 40
0.0
  0
LTYPE
  5
15
330
5
100
AcDbSymbolTableRecord
100
AcDbLinetypeTableRecord
  2
ByLayer
 70
     0
  3

 72
    65
 73
     0
 40
0.0
  0
LTYPE
  5
16
330
5
100
AcDbSymbolTableRecord
100
AcDbLinetypeTableRecord
  2
Continuous
 70
     0
  3
Solid line
 72
    65
 73
     0
 40
0.0
  0
ENDTAB
  0
TABLE
  2
LAYER
  5
2
330
0
100
AcDbSymbolTable
 70
     1
  0
LAYER
  5
10
330
2
100
AcDbSymbolTableRecord
100
AcDbLayerTableRecord
  2
0
 70
     0
 62
     7
  6
Continuous
370
    -3
390
F
  0
LAYER
  5
20004
330
2
100
AcDbSymbolTableRecord
100
AcDbLayerTableRecord
  2
TOIFA
 70
     0
 62
     7
  6
Continuous
370
    -3
390
F
  0
ENDTAB
  0
TABLE
  2
STYLE
  5
3
330
0
100
AcDbSymbolTable
 70
     1
  0
STYLE
  5
11
330
3
100
AcDbSymbolTableRecord
100
AcDbTextStyleTableRecord
  2
Standard
 70
     0
 40
0.0
 41
1.0
 50
0.0
 71
     0
 42
0.2
  3
txt
  4

  0
STYLE
  5
20005
100
AcDbSymbolTableRecord
100
AcDbTextStyleTableRecord
  2
AutoTextStyle-1
 70
0
 40
0.0
 41
1.0
 50
0.0
 71
0
1001
ACAD
1000
Arial
1071
0
  0
ENDTAB
  0
TABLE
  2
VIEW
  5
6
330
0
100
AcDbSymbolTable
 70
     0
  0
ENDTAB
  0
TABLE
  2
UCS
  5
7
330
0
100
AcDbSymbolTable
 70
     0
  0
ENDTAB
  0
TABLE
  2
APPID
  5
9
330
0
100
AcDbSymbolTable
 70
     1
  0
APPID
  5
12
330
9
100
AcDbSymbolTableRecord
100
AcDbRegAppTableRecord
  2
ACAD
 70
     0
  0
ENDTAB
  0
TABLE
  2
DIMSTYLE
  5
A
330
0
100
AcDbSymbolTable
 70
     1
100
AcDbDimStyleTable
  0
DIMSTYLE
105
27
330
A
100
AcDbSymbolTableRecord
100
AcDbDimStyleTableRecord
  2
Standard
 70
     0
340
11
  0
ENDTAB
  0
TABLE
  2
BLOCK_RECORD
  5
1
330
0
100
AcDbSymbolTable
 70
     1
  0
BLOCK_RECORD
  5
1F
330
1
100
AcDbSymbolTableRecord
100
AcDbBlockTableRecord
  2
*Model_Space
340
22
  0
BLOCK_RECORD
  5
1B
330
1
100
AcDbSymbolTableRecord
100
AcDbBlockTableRecord
  2
*Paper_Space
340
1E
  0
ENDTAB
  0
ENDSEC
  0
SECTION
  2
BLOCKS
  0
BLOCK
  5
20
330
1F
100
AcDbEntity
  8
0
100
AcDbBlockBegin
  2
*Model_Space
 70
     0
 10
0.0
 20
0.0
 30
0.0
  3
*Model_Space
  1

  0
ENDBLK
  5
21
330
1F
100
AcDbEntity
  8
0
100
AcDbBlockEnd
  0
BLOCK
  5
1C
330
1B
100
AcDbEntity
 67
     1
  8
0
100
AcDbBlockBegin
  2
*Paper_Space
 70
     0
 10
0.0
 20
0.0
 30
0.0
  3
*Paper_Space
  1

  0
ENDBLK
  5
1D
330
1B
100
AcDbEntity
 67
     1
  8
0
100
AcDbBlockEnd
  0
ENDSEC
  0
SECTION
  2
ENTITIES
  0
LWPOLYLINE
  5
20000
100
AcDbEntity
  8
TOIFA
100
AcDbPolyline
 70
0
 90
91
 62
7
 38
0
 10
-93.4099622707435
 20
40.4509580780505
 10
-93.4501554414564
 20
39.2999762612724
 10
-93.5705391365076
 20
38.1546019122094
 10
-93.7705268586357
 20
37.0204151795574
 10
-94.0491442877612
 20
35.90294170707
 10
-94.405034027776
 20
34.8076257131769
 10
-94.8364622196406
 20
33.7398034672998
 10
-95.3413269885712
 20
32.7046772920833
 10
-95.9171686841625
 20
31.7072902182026
 10
-96.5611818635569
 20
30.7525014152247
 10
-97.2702289592804
 20
29.8449625182226
 10
-98.0408555651558
 20
28.989094965477
 10
-98.8693072658223
 20
28.1890684576735
 10
-99.7515479278701
 20
27.4487806435395
 10
-100.683279363476
 20
26.7718381308923
 10
-101.659962270744
 20
26.1615389156072
 10
-102.676838348724
 20
25.6208563141142
 10
-103.728953479381
 20
25.1524244776985
 10
-104.811181863557
 20
24.7585255591804
 10
-105.918250993349
 20
24.4410785944965
 10
-107.044767339239
 20
24.201630153349
 10
-108.185242626827
 20
24.041346804474
 10
-109.334120575152
 20
23.9610094322354
 10
-110.485803966335
 20
23.9610094322354
 10
-111.63468191466
 20
24.0413468044739
 10
-112.775157202248
 20
24.201630153349
 10
-113.901673548138
 20
24.4410785944965
 10
-115.00874267793
 20
24.7585255591804
 10
-116.090971062106
 20
25.1524244776985
 10
-117.143086192763
 20
25.6208563141142
 10
-118.159962270744
 20
26.1615389156072
 10
-119.136645178011
 20
26.7718381308923
 10
-120.068376613617
 20
27.4487806435395
 10
-120.950617275665
 20
28.1890684576735
 10
-121.779068976331
 20
28.989094965477
 10
-122.549695582207
 20
29.8449625182226
 10
-123.25874267793
 20
30.7525014152247
 10
-123.902755857325
 20
31.7072902182026
 10
-124.478597552916
 20
32.7046772920833
 10
-124.983462321846
 20
33.7398034672998
 10
-125.414890513711
 20
34.8076257131769
 10
-125.770780253726
 20
35.90294170707
 10
-126.049397682851
 20
37.0204151795574
 10
-126.249385404979
 20
38.1546019122094
 10
-126.369769100031
 20
39.2999762612724
 10
-126.409962270744
 20
40.4509580780505
 10
-126.369769100031
 20
41.6019398948285
 10
-126.249385404979
 20
42.7473142438915
 10
-126.049397682851
 20
43.8815009765435
 10
-125.770780253726
 20
44.9989744490309
 10
-125.414890513711
 20
46.094290442924
 10
-124.983462321846
 20
47.1621126888012
 10
-124.478597552916
 20
48.1972388640177
 10
-123.902755857325
 20
49.1946259378983
 10
-123.25874267793
 20
50.1494147408763
 10
-122.549695582207
 20
51.0569536378784
 10
-121.779068976331
 20
51.9128211906239
 10
-120.950617275665
 20
52.7128476984275
 10
-120.068376613617
 20
53.4531355125614
 10
-119.136645178011
 20
54.1300780252086
 10
-118.159962270744
 20
54.7403772404937
 10
-117.143086192763
 20
55.2810598419867
 10
-116.090971062106
 20
55.7494916784024
 10
-115.00874267793
 20
56.1433905969205
 10
-113.901673548138
 20
56.4608375616044
 10
-112.775157202248
 20
56.7002860027519
 10
-111.63468191466
 20
56.860569351627
 10
-110.485803966335
 20
56.9409067238655
 10
-109.334120575152
 20
56.9409067238655
 10
-108.185242626827
 20
56.860569351627
 10
-107.044767339239
 20
56.7002860027519
 10
-105.918250993349
 20
56.4608375616044
 10
-104.811181863557
 20
56.1433905969205
 10
-103.728953479381
 20
55.7494916784025
 10
-102.676838348724
 20
55.2810598419867
 10
-101.659962270744
 20
54.7403772404937
 10
-100.683279363476
 20
54.1300780252087
 10
-99.7515479278701
 20
53.4531355125614
 10
-98.8693072658224
 20
52.7128476984275
 10
-98.0408555651558
 20
51.9128211906239
 10
-97.2702289592804
 20
51.0569536378784
 10
-96.5611818635569
 20
50.1494147408763
 10
-95.9171686841625
 20
49.1946259378984
 10
-95.3413269885712
 20
48.1972388640177
 10
-94.8364622196406
 20
47.1621126888012
 10
-94.405034027776
 20
46.094290442924
 10
-94.0491442877613
 20
44.998974449031
 10
-93.7705268586357
 20
43.8815009765435
 10
-93.5705391365076
 20
42.7473142438916
 10
-93.4501554414564
 20
41.6019398948285
 10
-93.4099622707435
 20
40.4509580780505
  0
LWPOLYLINE
  5
20001
100
AcDbEntity
  8
TOIFA
100
AcDbPolyline
 70
0
 90
5
 62
7
 10
-99
 20
24
 10
99
 20
24
 10
99
 20
0
 10
-99
 20
0
 10
-99
 20
24
  0
MTEXT
  5
20002
100
AcDbEntity
  8
TOIFA
100
AcDbMText
 62
7
 40
24
 71
7
  1
#TOIFA
  7
AutoTextStyle-1
 10
-56.2286091989081
 20
4.99121238364023
 30
0
  0
LWPOLYLINE
  5
20003
100
AcDbEntity
  8
TOIFA
100
AcDbPolyline
 70
0
 90
91
 62
7
 38
0
 10
128.02591417807
 20
40.4509580780505
 10
127.985721007357
 20
39.2999762612724
 10
127.865337312306
 20
38.1546019122094
 10
127.665349590178
 20
37.0204151795574
 10
127.386732161052
 20
35.90294170707
 10
127.030842421037
 20
34.8076257131769
 10
126.599414229173
 20
33.7398034672998
 10
126.094549460242
 20
32.7046772920833
 10
125.518707764651
 20
31.7072902182026
 10
124.874694585256
 20
30.7525014152247
 10
124.165647489533
 20
29.8449625182226
 10
123.395020883658
 20
28.989094965477
 10
122.566569182991
 20
28.1890684576735
 10
121.684328520943
 20
27.4487806435395
 10
120.752597085337
 20
26.7718381308923
 10
119.77591417807
 20
26.1615389156072
 10
118.75903810009
 20
25.6208563141142
 10
117.706922969432
 20
25.1524244776985
 10
116.624694585256
 20
24.7585255591804
 10
115.517625455464
 20
24.4410785944965
 10
114.391109109574
 20
24.201630153349
 10
113.250633821986
 20
24.041346804474
 10
112.101755873661
 20
23.9610094322354
 10
110.950072482479
 20
23.9610094322354
 10
109.801194534154
 20
24.0413468044739
 10
108.660719246565
 20
24.201630153349
 10
107.534202900675
 20
24.4410785944965
 10
106.427133770883
 20
24.7585255591804
 10
105.344905386707
 20
25.1524244776985
 10
104.29279025605
 20
25.6208563141142
 10
103.27591417807
 20
26.1615389156072
 10
102.299231270802
 20
26.7718381308923
 10
101.367499835196
 20
27.4487806435395
 10
100.485259173149
 20
28.1890684576735
 10
99.6568074724821
 20
28.989094965477
 10
98.8861808666067
 20
29.8449625182226
 10
98.1771337708832
 20
30.7525014152247
 10
97.5331205914888
 20
31.7072902182026
 10
96.9572788958975
 20
32.7046772920833
 10
96.4524141269669
 20
33.7398034672998
 10
96.0209859351023
 20
34.8076257131769
 10
95.6650961950875
 20
35.90294170707
 10
95.386478765962
 20
37.0204151795574
 10
95.1864910438339
 20
38.1546019122094
 10
95.0661073487827
 20
39.2999762612724
 10
95.0259141780698
 20
40.4509580780505
 10
95.0661073487827
 20
41.6019398948285
 10
95.1864910438339
 20
42.7473142438915
 10
95.386478765962
 20
43.8815009765435
 10
95.6650961950875
 20
44.9989744490309
 10
96.0209859351023
 20
46.094290442924
 10
96.4524141269669
 20
47.1621126888012
 10
96.9572788958975
 20
48.1972388640177
 10
97.5331205914888
 20
49.1946259378983
 10
98.1771337708832
 20
50.1494147408763
 10
98.8861808666067
 20
51.0569536378784
 10
99.6568074724821
 20
51.9128211906239
 10
100.485259173149
 20
52.7128476984275
 10
101.367499835196
 20
53.4531355125614
 10
102.299231270802
 20
54.1300780252086
 10
103.27591417807
 20
54.7403772404937
 10
104.29279025605
 20
55.2810598419867
 10
105.344905386707
 20
55.7494916784024
 10
106.427133770883
 20
56.1433905969205
 10
107.534202900675
 20
56.4608375616044
 10
108.660719246565
 20
56.7002860027519
 10
109.801194534154
 20
56.860569351627
 10
110.950072482479
 20
56.9409067238655
 10
112.101755873661
 20
56.9409067238655
 10
113.250633821986
 20
56.860569351627
 10
114.391109109574
 20
56.7002860027519
 10
115.517625455464
 20
56.4608375616044
 10
116.624694585256
 20
56.1433905969205
 10
117.706922969432
 20
55.7494916784025
 10
118.75903810009
 20
55.2810598419867
 10
119.77591417807
 20
54.7403772404937
 10
120.752597085337
 20
54.1300780252087
 10
121.684328520943
 20
53.4531355125614
 10
122.566569182991
 20
52.7128476984275
 10
123.395020883658
 20
51.9128211906239
 10
124.165647489533
 20
51.0569536378784
 10
124.874694585256
 20
50.1494147408763
 10
125.518707764651
 20
49.1946259378984
 10
126.094549460242
 20
48.1972388640177
 10
126.599414229173
 20
47.1621126888012
 10
127.030842421037
 20
46.094290442924
 10
127.386732161052
 20
44.998974449031
 10
127.665349590178
 20
43.8815009765435
 10
127.865337312306
 20
42.7473142438916
 10
127.985721007357
 20
41.6019398948285
 10
128.02591417807
 20
40.4509580780505
  0
ENDSEC
  0
SECTION
  2
OBJECTS
  0
DICTIONARY
  5
C
330
0
100
AcDbDictionary
281
     1
  3
ACAD_GROUP
350
D
  3
ACAD_LAYOUT
350
1A
  3
ACAD_MLEADERSTYLE
350
43
  3
ACAD_PLOTSETTINGS
350
19
  3
ACAD_PLOTSTYLENAME
350
E
  3
ACAD_TABLESTYLE
350
42
  0
DICTIONARY
  5
D
102
{ACAD_REACTORS
330
C
102
}
330
C
100
AcDbDictionary
281
     1
  0
DICTIONARY
  5
1A
102
{ACAD_REACTORS
330
C
102
}
330
C
100
AcDbDictionary
281
     1
  3
Layout1
350
1E
  3
Model
350
22
  0
DICTIONARY
  5
43
102
{ACAD_REACTORS
330
C
102
}
330
C
100
AcDbDictionary
281
     1
  0
DICTIONARY
  5
19
102
{ACAD_REACTORS
330
C
102
}
330
C
100
AcDbDictionary
281
     1
  0
ACDBDICTIONARYWDFLT
  5
E
102
{ACAD_REACTORS
330
C
102
}
330
C
100
AcDbDictionary
281
     1
  3
Normal
350
F
100
AcDbDictionaryWithDefault
340
F
  0
DICTIONARY
  5
42
102
{ACAD_REACTORS
330
C
102
}
330
C
100
AcDbDictionary
281
     1
  0
LAYOUT
  5
1E
102
{ACAD_REACTORS
330
1A
102
}
330
1A
100
AcDbPlotSettings
  1

  2
none_device
  4

  6

 40
0.0
 41
0.0
 42
0.0
 43
0.0
 44
0.0
 45
0.0
 46
0.0
 47
0.0
 48
0.0
 49
0.0
140
0.0
141
0.0
142
1.0
143
1.0
 70
   688
 72
     0
 73
     0
 74
     5
  7

 75
    16
 76
     0
 77
     2
 78
   300
147
1.0
148
0.0
149
0.0
100
AcDbLayout
  1
Layout1
 70
     1
 71
     1
 10
0.0
 20
0.0
 11
12.0
 21
9.0
 12
0.0
 22
0.0
 32
0.0
 14
1.000000000000000E+20
 24
1.000000000000000E+20
 34
1.000000000000000E+20
 15
-1.000000000000000E+20
 25
-1.000000000000000E+20
 35
-1.000000000000000E+20
146
0.0
 13
0.0
 23
0.0
 33
0.0
 16
1.0
 26
0.0
 36
0.0
 17
0.0
 27
1.0
 37
0.0
 76
     0
330
1B
  0
LAYOUT
  5
22
102
{ACAD_REACTORS
330
1A
102
}
330
1A
100
AcDbPlotSettings
  1

  2
none_device
  4

  6

 40
0.0
 41
0.0
 42
0.0
 43
0.0
 44
0.0
 45
0.0
 46
0.0
 47
0.0
 48
0.0
 49
0.0
140
0.0
141
0.0
142
1.0
143
1.0
 70
  1712
 72
     0
 73
     0
 74
     0
  7

 75
     0
 76
     0
 77
     2
 78
   300
147
1.0
148
0.0
149
0.0
100
AcDbLayout
  1
Model
 70
     1
 71
     0
 10
0.0
 20
0.0
 11
12.0
 21
9.0
 12
0.0
 22
0.0
 32
0.0
 14
30.0
 24
49.75
 34
0.0
 15
130.5
 25
163.1318914119703
 35
0.0
146
0.0
 13
0.0
 23
0.0
 33
0.0
 16
1.0
 26
0.0
 36
0.0
 17
0.0
 27
1.0
 37
0.0
 76
     0
330
1F
331
29
  0
ACDBPLACEHOLDER
  5
F
102
{ACAD_REACTORS
330
E
102
}
330
E
  0
ENDSEC
  0
EOF
